<svg width="31" height="31" viewBox="0 0 31 31" fill="none" xmlns="http://www.w3.org/2000/svg">
<g opacity="0.5">
<path fill-rule="evenodd" clip-rule="evenodd" d="M13.3225 15.2731C13.3225 14.2431 14.1575 13.4081 15.1875 13.4081C16.2175 13.4081 17.0525 14.2431 17.0525 15.2731C17.0525 16.3031 16.2175 17.1381 15.1875 17.1381C14.1575 17.1381 13.3225 16.3031 13.3225 15.2731ZM13.3225 22.733C13.3225 21.703 14.1575 20.868 15.1875 20.868C16.2175 20.868 17.0525 21.703 17.0525 22.733C17.0525 23.763 16.2175 24.598 15.1875 24.598C14.1575 24.598 13.3225 23.763 13.3225 22.733ZM13.3225 7.81322C13.3225 6.78322 14.1575 5.94824 15.1875 5.94824C16.2175 5.94824 17.0525 6.78322 17.0525 7.81322C17.0525 8.84321 16.2175 9.67819 15.1875 9.67819C14.1575 9.67819 13.3225 8.84321 13.3225 7.81322Z" fill="white"/>
</g>
</svg>
