<svg width="22" height="23" viewBox="0 0 22 23" fill="none" xmlns="http://www.w3.org/2000/svg">
<path d="M15.6614 3.47182C15.8908 3.2007 16.1746 2.98002 16.4947 2.82384C16.8148 2.66766 17.1641 2.5794 17.5204 2.5647C17.8767 2.55 18.2322 2.60917 18.5642 2.73844C18.8962 2.86772 19.1975 3.06426 19.4488 3.31555C19.7001 3.56683 19.8959 3.86734 20.0237 4.19793C20.1516 4.52852 20.2086 4.88193 20.1913 5.23563C20.174 5.58934 20.0827 5.93558 19.9231 6.2523C19.7636 6.56901 19.5394 6.84925 19.2647 7.07515L7.1035 19.2364L2.14893 20.5876L3.50017 15.633L15.6614 3.47182Z" stroke="#49535B" stroke-width="1.35125" stroke-linecap="round" stroke-linejoin="round"/>
</svg>
