<svg width="22" height="22" viewBox="0 0 22 22" fill="none" xmlns="http://www.w3.org/2000/svg">
<g clip-path="url(#clip0_414_463)">
<path d="M16.254 14.3244C17.5624 12.539 18.1485 10.3254 17.8949 8.12644C17.6413 5.9275 16.5667 3.9054 14.8863 2.46469C13.2058 1.02397 11.0433 0.2709 8.83141 0.356128C6.61954 0.441355 4.5214 1.3586 2.95677 2.92435C1.39214 4.4901 0.476398 6.58889 0.392753 8.80083C0.309109 11.0128 1.06373 13.1747 2.50564 14.8542C3.94756 16.5336 5.97043 17.6067 8.16955 17.8587C10.3687 18.1107 12.5819 17.5231 14.3663 16.2135H14.365C14.4055 16.2675 14.4488 16.3189 14.4974 16.3688L19.6997 21.5712C19.9531 21.8247 20.2968 21.9672 20.6552 21.9673C21.0137 21.9675 21.3575 21.8252 21.6111 21.5718C21.8646 21.3185 22.0071 20.9747 22.0072 20.6163C22.0074 20.2579 21.8651 19.914 21.6117 19.6605L16.4094 14.4582C16.3611 14.4093 16.3092 14.3641 16.254 14.3231V14.3244ZM16.6027 9.13022C16.6027 10.1062 16.4104 11.0726 16.0369 11.9743C15.6635 12.8759 15.116 13.6952 14.4259 14.3853C13.7358 15.0754 12.9165 15.6229 12.0148 15.9964C11.1132 16.3698 10.1468 16.5621 9.1708 16.5621C8.19483 16.5621 7.22842 16.3698 6.32675 15.9964C5.42507 15.6229 4.60579 15.0754 3.91568 14.3853C3.22556 13.6952 2.67814 12.8759 2.30465 11.9743C1.93117 11.0726 1.73894 10.1062 1.73894 9.13022C1.73894 7.15916 2.52193 5.26884 3.91568 3.8751C5.30942 2.48135 7.19974 1.69835 9.1708 1.69835C11.1418 1.69835 13.0322 2.48135 14.4259 3.8751C15.8197 5.26884 16.6027 7.15916 16.6027 9.13022V9.13022Z" fill="#B5BEC4"/>
</g>
<defs>
<clipPath id="clip0_414_463">
<rect width="21.62" height="21.62" fill="white" transform="translate(0.387695 0.34668)"/>
</clipPath>
</defs>
</svg>
