<svg width="213" height="20" viewBox="0 0 213 20" fill="none" xmlns="http://www.w3.org/2000/svg">
<path d="M1.29144 15.0863C3.40834 16.3059 5.4891 16.9155 7.53469 16.9155C9.61545 16.9155 10.9074 15.9113 10.9074 14.297C10.9074 12.8614 9.72291 12.2514 7.42675 11.4264L5.66836 10.8525C2.47542 9.84775 0.896778 8.01756 0.896778 5.39854C0.824977 0.555157 6.85283 -1.77715 13.67 1.703L12.3781 4.35816C10.6558 3.49753 9.04154 3.06672 7.57035 3.06672C5.52525 3.06672 4.23381 3.9635 4.23381 5.39854C4.23381 6.72612 5.16673 7.40799 6.99643 8.01756L8.75433 8.55631C12.2345 9.70415 14.3157 11.3902 14.3157 14.1529C14.3157 17.8123 11.7324 20.001 7.49855 20.001C5.05879 20.001 2.58337 19.3557 0 17.9202L1.29144 15.0863Z" fill="#D4D4D8"/>
<path d="M32.1962 16.6636V19.6777H20.3921V0.554287H31.909V3.56797H23.6212V8.73421H31.2277V11.6048H23.6212V16.6636H32.1962Z" fill="#D4D4D8"/>
<path d="M45.4955 10.2054C47.5406 10.2054 48.832 8.87732 48.832 6.8332C48.832 4.89555 47.4688 3.56748 45.4955 3.56748H41.6563V10.2054H45.4955ZM38.3916 0.553795H45.6747C47.6124 0.553795 49.191 1.1282 50.375 2.3117C51.5947 3.46002 52.1691 4.96686 52.1691 6.8332C52.1691 9.48787 50.8776 11.6048 48.6884 12.5016L52.7068 19.6777H49.1554L45.6029 13.2191H41.6563V19.6777H38.3916V0.553795Z" fill="#D4D4D8"/>
<path d="M58.501 13.1486V0.482866H61.7662V12.6822C61.7662 15.0496 63.4166 16.7006 65.8559 16.7006C68.2962 16.7006 69.9461 15.0496 69.9461 12.6822V0.482866H73.1757V13.1486C73.1757 15.1576 72.4938 16.8442 71.1306 18.1356C69.803 19.3914 68.0446 20.001 65.8559 20.001C63.6677 20.001 61.8737 19.3914 60.5461 18.1356C59.1828 16.8442 58.501 15.1576 58.501 13.1486Z" fill="#D4D4D8"/>
<path d="M87.2474 10.2054C89.2925 10.2054 90.584 8.87732 90.584 6.8332C90.584 4.89555 89.2207 3.56748 87.2474 3.56748H83.4083V10.2054H87.2474ZM80.1436 0.553795H87.4267C89.3643 0.553795 90.943 1.1282 92.127 2.3117C93.3466 3.46002 93.921 4.96686 93.921 6.8332C93.921 9.48787 92.6296 11.6048 90.4404 12.5016L94.4588 19.6777H90.9073L87.3549 13.2191H83.4083V19.6777H80.1436V0.553795Z" fill="#D4D4D8"/>
<path d="M109.772 12.4655H104.27V19.5596H111.364V14.0578L109.772 12.4655Z" fill="#EE2962"/>
<path d="M125.671 17.4627L124.203 13.4692L122.749 17.4627H125.671ZM125.896 18.0713H122.525L121.942 19.6709H121.176L123.833 12.61H124.6L127.245 19.6709H126.478L125.896 18.0713Z" fill="#D4D4D8"/>
<path d="M136.594 18.1904C137.044 17.6742 137.269 16.9869 137.269 16.1277C137.269 15.2676 137.044 14.5936 136.594 14.0778C136.131 13.5625 135.549 13.2977 134.809 13.2977H132.772V18.9837H134.809C135.549 18.9837 136.131 18.7194 136.594 18.1904ZM137.136 13.5888C137.718 14.2233 138.009 15.0693 138.009 16.1277C138.009 17.1852 137.718 18.0449 137.123 18.693C136.541 19.3412 135.761 19.6709 134.796 19.6709H132.058V12.61H134.822C135.774 12.61 136.554 12.9407 137.136 13.5888Z" fill="#D4D4D8"/>
<path d="M148.134 12.61L145.555 19.6709H144.842L142.276 12.61H143.043L145.211 18.6662L147.367 12.61H148.134Z" fill="#D4D4D8"/>
<path d="M155.727 13.1658C154.948 13.1785 154.312 13.4696 153.836 14.0123C153.361 14.5403 153.122 15.2549 153.122 16.1277C153.122 17.0133 153.361 17.741 153.836 18.2827C154.312 18.8122 154.948 19.0896 155.727 19.0896C156.508 19.0896 157.143 18.8122 157.618 18.2827C158.094 17.741 158.333 17.0133 158.333 16.1277C158.333 15.2285 158.094 14.5139 157.618 13.9722C157.143 13.43 156.508 13.1521 155.727 13.1658ZM152.382 16.1277C152.382 15.0429 152.687 14.1573 153.294 13.4828C153.916 12.8214 154.722 12.4776 155.727 12.4776C156.732 12.4776 157.539 12.8214 158.147 13.4828C158.769 14.1573 159.073 15.0429 159.087 16.1277C159.099 17.2252 158.782 18.1113 158.161 18.7853C157.552 19.4599 156.732 19.79 155.727 19.79C154.722 19.79 153.916 19.4599 153.294 18.7853C152.687 18.1113 152.382 17.2252 152.382 16.1277Z" fill="#D4D4D8"/>
<path d="M167.698 12.4649C168.545 12.4649 169.575 12.8351 170.369 13.4173L170.065 14.0123C169.351 13.496 168.439 13.1521 167.711 13.1521C166.865 13.1521 166.164 13.4173 165.622 13.9722C165.093 14.5139 164.829 15.2285 164.829 16.1277C164.829 17.0269 165.093 17.7537 165.622 18.2959C166.151 18.8386 166.852 19.1165 167.711 19.1165C168.478 19.1165 169.166 18.8649 169.787 18.3486V16.0613H170.462V18.6402C170.131 18.9836 169.708 19.2615 169.192 19.473C168.663 19.6845 168.174 19.79 167.672 19.79C166.601 19.79 165.741 19.4599 165.08 18.7853C164.432 18.124 164.115 17.2252 164.115 16.1409C164.115 15.0434 164.432 14.1573 165.093 13.4828C165.767 12.8087 166.627 12.4649 167.698 12.4649Z" fill="#D4D4D8"/>
<path d="M179.566 17.4627L178.098 13.4692L176.644 17.4627H179.566ZM179.79 18.0713H176.419L175.837 19.6709H175.07L177.728 12.61H178.495L181.139 19.6709H180.373L179.79 18.0713Z" fill="#D4D4D8"/>
<path d="M190.489 18.1904C190.939 17.6742 191.164 16.9869 191.164 16.1277C191.164 15.2676 190.939 14.5936 190.489 14.0778C190.026 13.5625 189.444 13.2977 188.704 13.2977H186.667V18.9837H188.704C189.444 18.9837 190.026 18.7194 190.489 18.1904ZM191.031 13.5888C191.613 14.2233 191.904 15.0693 191.904 16.1277C191.904 17.1852 191.613 18.0449 191.018 18.693C190.436 19.3412 189.656 19.6709 188.691 19.6709H185.953V12.61H188.717C189.669 12.61 190.449 12.9407 191.031 13.5888Z" fill="#D4D4D8"/>
<path d="M200.165 13.1658C199.386 13.1785 198.75 13.4696 198.274 14.0123C197.799 14.5403 197.56 15.2549 197.56 16.1277C197.56 17.0133 197.799 17.741 198.274 18.2827C198.75 18.8122 199.386 19.0896 200.165 19.0896C200.946 19.0896 201.581 18.8122 202.057 18.2827C202.532 17.741 202.771 17.0133 202.771 16.1277C202.771 15.2285 202.532 14.5139 202.057 13.9722C201.581 13.43 200.946 13.1521 200.165 13.1658ZM196.82 16.1277C196.82 15.0429 197.125 14.1573 197.732 13.4828C198.354 12.8214 199.16 12.4776 200.165 12.4776C201.17 12.4776 201.977 12.8214 202.585 13.4828C203.207 14.1573 203.511 15.0429 203.525 16.1277C203.537 17.2252 203.22 18.1113 202.599 18.7853C201.99 19.4599 201.17 19.79 200.165 19.79C199.16 19.79 198.354 19.4599 197.732 18.7853C197.125 18.1113 196.82 17.2252 196.82 16.1277Z" fill="#D4D4D8"/>
<path d="M208.231 18.482C209.024 18.905 209.778 19.117 210.518 19.117C211.524 19.117 212.172 18.588 212.172 17.7684C212.172 17.3981 212.026 17.1202 211.656 16.9082C211.312 16.6836 211.074 16.578 210.532 16.3929L209.977 16.1946C208.906 15.8107 208.245 15.2685 208.245 14.3034C208.245 13.7617 208.456 13.325 208.866 12.9812C209.289 12.6373 209.831 12.4659 210.518 12.4659C211.14 12.4659 211.867 12.6642 212.674 13.0339L212.396 13.6293C211.762 13.3118 211.14 13.1531 210.558 13.1531C209.606 13.1531 208.985 13.5898 208.985 14.3034C208.985 14.9515 209.435 15.2685 210.267 15.5728L210.836 15.758C211.471 15.9826 211.855 16.1678 212.278 16.4721C212.714 16.7764 212.925 17.2125 212.925 17.7547C212.925 19.011 212 19.791 210.518 19.791C209.699 19.791 208.852 19.5531 207.953 19.1033L208.231 18.482Z" fill="#D4D4D8"/>
</svg>
