<svg width="166" height="44" viewBox="0 0 166 44" fill="none" xmlns="http://www.w3.org/2000/svg">
<path d="M163.712 24.2993H155.807V29.28V34.2607H166V26.5352L163.712 24.2993Z" fill="#C6F432"/>
<path d="M16.2658 14.6208C16.128 14.8619 15.9787 15.0399 15.8179 15.1548C15.6686 15.2581 15.4791 15.3098 15.2494 15.3098C15.0082 15.3098 14.7441 15.2237 14.457 15.0514C14.1813 14.8677 13.8483 14.6667 13.4578 14.4485C13.0673 14.2303 12.608 14.035 12.0797 13.8628C11.5629 13.679 10.9485 13.5871 10.2364 13.5871C9.59329 13.5871 9.03055 13.6675 8.5482 13.8283C8.06585 13.9776 7.65815 14.1901 7.3251 14.4657C7.00353 14.7413 6.76236 15.0744 6.60157 15.4649C6.44079 15.8439 6.3604 16.263 6.3604 16.7224C6.3604 17.3081 6.52118 17.7962 6.84275 18.1867C7.1758 18.5772 7.61221 18.9102 8.15198 19.1858C8.69175 19.4615 9.30617 19.7084 9.99524 19.9266C10.6843 20.1448 11.3906 20.3802 12.1141 20.6329C12.8377 20.8741 13.544 21.1612 14.233 21.4942C14.9221 21.8158 15.5365 22.2292 16.0763 22.7346C16.6161 23.2284 17.0467 23.8371 17.3683 24.5606C17.7013 25.2841 17.8679 26.1627 17.8679 27.1963C17.8679 28.3218 17.6726 29.3783 17.2822 30.366C16.9032 31.3422 16.3404 32.1978 15.5939 32.9328C14.8589 33.6563 13.9574 34.2305 12.8893 34.6555C11.8213 35.0689 10.5982 35.2756 9.22004 35.2756C8.42761 35.2756 7.64666 35.1952 6.8772 35.0345C6.10774 34.8852 5.36699 34.6669 4.65495 34.3798C3.9544 34.0927 3.29404 33.7482 2.67388 33.3462C2.05371 32.9443 1.50246 32.4964 1.02011 32.0025L2.38102 29.7803C2.49587 29.6195 2.64516 29.4874 2.82892 29.3841C3.01267 29.2692 3.2079 29.2118 3.41463 29.2118C3.70174 29.2118 4.01182 29.3324 4.34487 29.5736C4.67792 29.8033 5.07414 30.0617 5.53352 30.3488C5.9929 30.6359 6.52693 30.9 7.1356 31.1412C7.75577 31.3709 8.49652 31.4857 9.35786 31.4857C10.6786 31.4857 11.7007 31.1757 12.4242 30.5555C13.1477 29.9239 13.5095 29.0223 13.5095 27.8509C13.5095 27.1963 13.343 26.6623 13.0099 26.2488C12.6884 25.8354 12.2577 25.4908 11.7179 25.2152C11.1781 24.9281 10.5637 24.6869 9.87466 24.4917C9.18559 24.2964 8.48503 24.084 7.77299 23.8543C7.06095 23.6246 6.3604 23.349 5.67133 23.0274C4.98226 22.7058 4.36784 22.2867 3.82807 21.7699C3.2883 21.2531 2.85188 20.6099 2.51883 19.8405C2.19727 19.0595 2.03649 18.1006 2.03649 16.9636C2.03649 16.0563 2.2145 15.172 2.57051 14.3107C2.93802 13.4493 3.46631 12.6856 4.15538 12.0195C4.84445 11.3534 5.6943 10.8194 6.70494 10.4174C7.71557 10.0155 8.87551 9.81449 10.1847 9.81449C11.6548 9.81449 13.0099 10.0442 14.2503 10.5036C15.4906 10.9629 16.5472 11.6061 17.42 12.433L16.2658 14.6208ZM48.4222 22.5451C48.4222 24.3711 48.1179 26.0651 47.5092 27.6269C46.912 29.1774 46.0621 30.521 44.9596 31.658C43.8571 32.795 42.5307 33.685 40.9803 34.3282C39.4298 34.9598 37.7072 35.2756 35.8122 35.2756C33.9288 35.2756 32.2118 34.9598 30.6614 34.3282C29.111 33.685 27.7788 32.795 26.6648 31.658C25.5623 30.521 24.7067 29.1774 24.098 27.6269C23.4894 26.0651 23.185 24.3711 23.185 22.5451C23.185 20.719 23.4894 19.0308 24.098 17.4804C24.7067 15.9185 25.5623 14.5691 26.6648 13.4321C27.7788 12.2951 29.111 11.4108 30.6614 10.7792C32.2118 10.1361 33.9288 9.81449 35.8122 9.81449C37.0755 9.81449 38.2642 9.96379 39.3782 10.2624C40.4922 10.5495 41.5143 10.9629 42.4445 11.5027C43.3748 12.031 44.2074 12.6799 44.9424 13.4493C45.6889 14.2073 46.3205 15.0572 46.8373 15.9989C47.3541 16.9406 47.7446 17.9627 48.0088 19.0653C48.2844 20.1678 48.4222 21.3277 48.4222 22.5451ZM43.6849 22.5451C43.6849 21.1784 43.5011 19.9553 43.1336 18.8758C42.7661 17.7847 42.2435 16.8602 41.566 16.1023C40.8884 15.3443 40.0615 14.7643 39.0853 14.3624C38.1206 13.9604 37.0296 13.7594 35.8122 13.7594C34.5949 13.7594 33.4981 13.9604 32.5219 14.3624C31.5572 14.7643 30.7303 15.3443 30.0413 16.1023C29.3637 16.8602 28.8411 17.7847 28.4736 18.8758C28.1061 19.9553 27.9224 21.1784 27.9224 22.5451C27.9224 23.9117 28.1061 25.1406 28.4736 26.2316C28.8411 27.3111 29.3637 28.2299 30.0413 28.9879C30.7303 29.7344 31.5572 30.3086 32.5219 30.7105C33.4981 31.1125 34.5949 31.3135 35.8122 31.3135C37.0296 31.3135 38.1206 31.1125 39.0853 30.7105C40.0615 30.3086 40.8884 29.7344 41.566 28.9879C42.2435 28.2299 42.7661 27.3111 43.1336 26.2316C43.5011 25.1406 43.6849 23.9117 43.6849 22.5451ZM63.3446 22.614C64.1945 22.614 64.9352 22.5106 65.5669 22.3039C66.1985 22.0857 66.7211 21.7813 67.1345 21.3909C67.5594 20.9889 67.8752 20.5066 68.082 19.9438C68.2887 19.3696 68.392 18.7322 68.392 18.0316C68.392 17.3655 68.2887 16.7626 68.082 16.2228C67.8752 15.6831 67.5652 15.2237 67.1517 14.8447C66.7383 14.4657 66.2157 14.1786 65.5841 13.9834C64.9524 13.7766 64.2059 13.6733 63.3446 13.6733H59.882V22.614H63.3446ZM63.3446 10.0901C65.0099 10.0901 66.4512 10.2854 67.6685 10.6758C68.8859 11.0663 69.8908 11.6118 70.6832 12.3124C71.4756 13.0129 72.0613 13.8513 72.4403 14.8275C72.8308 15.8037 73.026 16.8717 73.026 18.0316C73.026 19.2375 72.8251 20.3458 72.4231 21.3564C72.0212 22.3556 71.4182 23.2169 70.6143 23.9404C69.8104 24.6639 68.7997 25.2267 67.5824 25.6286C66.3765 26.0306 64.9639 26.2316 63.3446 26.2316H59.882V35H55.248V10.0901H63.3446ZM100.335 10.0901V35H95.6841V24.1127H83.9871V35H79.3359V10.0901H83.9871V20.8052H95.6841V10.0901H100.335ZM113.29 35H108.639V10.0901H113.29V35ZM134.785 25.5942L131.753 17.3081C131.604 16.9406 131.449 16.5042 131.288 15.9989C131.127 15.4936 130.966 14.9481 130.805 14.3624C130.656 14.9481 130.501 15.4993 130.34 16.0161C130.179 16.5214 130.024 16.9636 129.875 17.3426L126.86 25.5942H134.785ZM142.967 35H139.384C138.982 35 138.655 34.9024 138.402 34.7071C138.15 34.5004 137.96 34.2478 137.834 33.9492L135.973 28.8673H125.655L123.794 33.9492C123.702 34.2133 123.524 34.4545 123.26 34.6727C122.996 34.8909 122.669 35 122.278 35H118.661L128.463 10.0901H133.183L142.967 35Z" fill="#D4D4D8"/>
</svg>
