<svg width="66" height="69" viewBox="0 0 66 69" fill="none" xmlns="http://www.w3.org/2000/svg">
<rect x="0.593994" y="0.615234" width="64.9513" height="68.3912" rx="32.4757" fill="black" fill-opacity="0.2"/>
<path d="M44.6213 32.8184H20.9705C19.1045 32.8184 17.5918 34.3311 17.5918 36.197V48.0225C17.5918 49.8885 19.1045 51.4012 20.9705 51.4012H44.6213C46.4873 51.4012 48 49.8885 48 48.0225V36.197C48 34.3311 46.4873 32.8184 44.6213 32.8184Z" stroke="black" stroke-width="3.37869" stroke-linecap="round" stroke-linejoin="round"/>
<path d="M24.3494 32.8174V26.06C24.3494 23.8198 25.2393 21.6713 26.8234 20.0873C28.4074 18.5032 30.5559 17.6133 32.7961 17.6133C35.0363 17.6133 37.1848 18.5032 38.7688 20.0873C40.3529 21.6713 41.2428 23.8198 41.2428 26.06V32.8174" stroke="black" stroke-width="3.37869" stroke-linecap="round" stroke-linejoin="round"/>
</svg>
